<svg width="26" height="26" viewBox="0 0 26 26" fill="none" xmlns="http://www.w3.org/2000/svg">
<circle cx="13" cy="13" r="13" fill="#E1BC9B"/>
<path fill-rule="evenodd" clip-rule="evenodd" d="M9.32426 10.0833L11.8901 7.6244C12.5106 7.02976 13.4895 7.02976 14.11 7.6244L16.6758 10.0833H18.1608C18.5158 10.0833 18.7885 10.3977 18.7383 10.7492L17.8814 16.7475C17.7582 17.6096 17.0198 18.25 16.1489 18.25H9.85115C8.98026 18.25 8.2419 17.6096 8.11874 16.7475L7.26183 10.7492C7.21163 10.3977 7.48432 10.0833 7.8393 10.0833H9.32426ZM12.4955 8.25614C12.7776 7.98585 13.2225 7.98585 13.5046 8.25614L15.4112 10.0833H10.5889L12.4955 8.25614ZM8.1756 10.9583L8.98494 16.6237C9.04652 17.0548 9.4157 17.375 9.85115 17.375H16.1489C16.5844 17.375 16.9536 17.0548 17.0152 16.6238L17.8245 10.9583H8.1756Z" fill="white"/>
<path fill-rule="evenodd" clip-rule="evenodd" d="M10.6667 12.5625C10.9084 12.5625 11.1042 12.7584 11.1042 13V15.3333C11.1042 15.575 10.9084 15.7708 10.6667 15.7708C10.4251 15.7708 10.2292 15.575 10.2292 15.3333V13C10.2292 12.7584 10.4251 12.5625 10.6667 12.5625Z" fill="white"/>
<path fill-rule="evenodd" clip-rule="evenodd" d="M13 12.5625C13.2416 12.5625 13.4375 12.7584 13.4375 13V15.3333C13.4375 15.575 13.2416 15.7708 13 15.7708C12.7584 15.7708 12.5625 15.575 12.5625 15.3333V13C12.5625 12.7584 12.7584 12.5625 13 12.5625Z" fill="white"/>
<path fill-rule="evenodd" clip-rule="evenodd" d="M15.3333 12.5625C15.5749 12.5625 15.7708 12.7584 15.7708 13V15.3333C15.7708 15.575 15.5749 15.7708 15.3333 15.7708C15.0916 15.7708 14.8958 15.575 14.8958 15.3333V13C14.8958 12.7584 15.0916 12.5625 15.3333 12.5625Z" fill="white"/>
</svg>
