<svg width="112" height="112" viewBox="0 0 112 112" fill="none" xmlns="http://www.w3.org/2000/svg">
<path d="M111.22 55.61C111.22 66.6086 107.959 77.3602 101.848 86.5053C95.7375 95.6503 87.0525 102.778 76.8911 106.987C66.7297 111.196 55.5483 112.297 44.7611 110.151C33.9738 108.006 24.065 102.709 16.2878 94.9322C8.51062 87.155 3.21428 77.2463 1.06856 66.459C-1.07717 55.6717 0.0240951 44.4904 4.23308 34.329C8.44207 24.1676 15.5697 15.4825 24.7148 9.37197C33.8598 3.26147 44.6114 0 55.61 0C70.3587 0 84.5033 5.85889 94.9322 16.2878C105.361 26.7167 111.22 40.8613 111.22 55.61V55.61Z" fill="#FFE085"/>
<path d="M86.6403 70.5901C83.7011 76.8604 78.9679 82.1178 73.0397 85.6971C67.1115 89.2764 60.2547 91.0167 53.337 90.6977C46.4194 90.3788 39.7519 88.0149 34.1782 83.9052C28.6045 79.7955 24.3753 74.1248 22.0256 67.6106C19.6759 61.0965 19.3114 54.0317 20.9783 47.3103C22.6451 40.5889 26.2684 34.5131 31.3896 29.8517C36.5107 25.1902 42.8996 22.1527 49.7477 21.1236C56.5957 20.0944 63.5952 21.1198 69.8603 24.0701C78.2486 28.0202 84.7269 35.1373 87.8729 43.8592C91.0189 52.581 90.5756 62.1948 86.6403 70.5901V70.5901Z" fill="#2F2C26"/>
<path d="M65.7894 60.79C64.7866 62.9257 63.173 64.7162 61.1527 65.9349C59.1324 67.1536 56.796 67.7459 54.4391 67.6368C52.0821 67.5277 49.8105 66.7222 47.9113 65.3221C46.0122 63.922 44.5708 61.9902 43.7696 59.771C42.9683 57.5518 42.8431 55.1448 43.4097 52.8544C43.9764 50.564 45.2095 48.493 46.9531 46.9034C48.6967 45.3138 50.8725 44.2769 53.2054 43.9239C55.5383 43.5708 57.9235 43.9175 60.0594 44.92C62.9221 46.2665 65.1333 48.694 66.2077 51.6695C67.282 54.645 67.1316 57.9253 65.7894 60.79V60.79Z" fill="#FEE449"/>
<path d="M56.8505 56.6001C56.6783 56.9692 56.4006 57.2788 56.0525 57.4901C55.7043 57.7013 55.3014 57.8047 54.8945 57.787C54.4877 57.7694 54.0952 57.6315 53.7667 57.3909C53.4381 57.1503 53.1883 56.8177 53.0487 56.4352C52.9091 56.0527 52.886 55.6373 52.9823 55.2417C53.0786 54.846 53.29 54.4878 53.5899 54.2122C53.8897 53.9367 54.2645 53.7561 54.6668 53.6935C55.0692 53.6308 55.4811 53.6888 55.8505 53.8601C56.1019 53.9675 56.3286 54.1253 56.5166 54.3237C56.7046 54.5221 56.8499 54.7569 56.9437 55.0137C57.0374 55.2704 57.0775 55.5437 57.0614 55.8166C57.0454 56.0894 56.9736 56.3561 56.8505 56.6001Z" fill="#FA773F"/>
<path d="M49.41 67.6102C48.2363 67.0662 47.1536 66.3444 46.2 65.4702L34 82.2002C38.095 85.4426 42.8879 87.6884 48 88.7602L53.1 68.7102C51.8216 68.5316 50.5776 68.1607 49.41 67.6102V67.6102Z" fill="#BABABA"/>
<path d="M60.5706 43.8302C59.4035 43.2857 58.1642 42.9119 56.8906 42.7202L61.9906 22.7202C67.1027 23.792 71.8956 26.0378 75.9906 29.2802L63.7806 46.0002C62.8267 45.1184 61.7444 44.3867 60.5706 43.8302Z" fill="#BABABA"/>
</svg>
