<svg width="105" height="105" viewBox="0 0 105 105" fill="none" xmlns="http://www.w3.org/2000/svg">
<g clip-path="url(#clip0_37_122)">
<path d="M105.21 52.605C105.21 63.0093 102.125 73.1799 96.3445 81.8308C90.5642 90.4816 82.3484 97.2241 72.7361 101.206C63.1238 105.187 52.5467 106.229 42.3423 104.199C32.1379 102.169 22.7646 97.1593 15.4077 89.8023C8.05073 82.4454 3.04059 73.0721 1.01081 62.8677C-1.01896 52.6634 0.0227931 42.0862 4.00434 32.4739C7.98589 22.8616 14.7284 14.6459 23.3792 8.86554C32.0301 3.08523 42.2007 1.63832e-06 52.605 1.63832e-06C59.5137 -0.00172273 66.355 1.35777 72.7381 4.00081C79.1212 6.64384 84.921 10.5186 89.8062 15.4038C94.6914 20.289 98.5662 26.0888 101.209 32.4719C103.852 38.855 105.212 45.6963 105.21 52.605V52.605Z" fill="#F6B900"/>
<g style="mix-blend-mode:multiply">
<g style="mix-blend-mode:multiply">
<path d="M105.211 52.6445L105.001 52.5001C104.923 52.4082 66.1907 13.637 65.8888 13.3876L65.6919 13.1251C63.7625 10.9726 57.4625 8.11133 52.4094 8.11133C45.5582 8.11133 43.0775 9.71258 38.3657 13.6763C37.3813 14.5032 36.6856 16.5507 36.0425 18.7426C35.5591 20.3226 35.4336 21.9905 35.675 23.6251C35.9769 26.342 36.2525 28.3238 36.4757 29.7545C36.3326 29.6238 36.1596 29.5303 35.972 29.4822C35.7843 29.4342 35.5876 29.433 35.3994 29.4788C34.4544 29.807 34.3363 31.9332 35.1369 34.2432C35.5559 35.4213 36.2972 36.4581 37.2763 37.2357C37.5813 37.6197 37.9292 37.9675 38.3132 38.2726C38.6172 38.6854 38.9747 39.0562 39.3763 39.3751V39.3751C40.3303 41.5133 41.5615 43.5168 43.0382 45.3338V48.5626L42.3557 48.1688C42.3282 48.7638 42.183 49.3474 41.9284 49.8859C41.6739 50.4244 41.315 50.9069 40.8725 51.3057L36.935 54.5738L36.2394 54.9545L33.4963 55.6501C33.4963 55.6501 23.9019 57.1595 22.13 59.7845C18.9538 61.8057 18.7307 86.9926 19.3607 87.0976C19.3607 87.0976 29.8607 97.322 34.9269 102.139C42.8613 104.97 51.3597 105.854 59.707 104.717C68.0544 103.58 76.0065 100.455 82.8945 95.6043C89.7824 90.7538 95.4047 84.3199 99.2883 76.844C103.172 69.3682 105.203 61.0689 105.211 52.6445V52.6445Z" fill="#B3B3B3"/>
</g>
</g>
<path d="M55.0072 83.6587L71.3872 57.4087L62.8166 51.0562L41.5147 52.5655L33.4297 60.178L51.6866 85.5487C52.7759 84.8662 53.8784 84.2493 55.0072 83.6587Z" fill="#80D1D9"/>
<path d="M62.1468 40.7793H43.0762V54.1274H62.1468V40.7793Z" fill="#D1AB86"/>
<path d="M37.1828 31.2374C38.3509 42.7743 47.0528 51.3318 52.5784 51.3318C58.4978 51.3318 66.609 42.538 67.9871 31.2374C69.2996 20.2387 61.0834 14.6343 52.5784 14.6343C44.0734 14.6343 36.054 20.2124 37.1828 31.2374Z" fill="#FFE2C2"/>
<path d="M68.5786 19.8974C67.9879 17.8237 67.3973 14.9887 65.6911 13.0855C63.7617 10.933 57.4617 8.07178 52.4086 8.07178C45.5573 8.07178 43.0767 9.67303 38.3648 13.6368C37.3804 14.4637 36.6848 16.5112 36.0417 18.703C35.5524 20.2955 35.4268 21.9774 35.6742 23.6249C35.9029 26.7746 36.3902 29.9001 37.1311 32.9699L38.9554 33.8099C38.4248 31.8416 38.5305 29.7558 39.2573 27.8512C39.5769 26.9359 39.9903 26.0562 40.4911 25.2262C42.5779 26.368 44.8486 28.0349 47.4211 27.9824C52.3954 27.8905 54.4429 23.9793 56.7398 24.3337C61.2811 25.0687 63.9848 30.463 66.6098 30.5418C66.7291 31.6344 66.6355 32.7398 66.3342 33.7968L67.3317 32.9568C67.5425 32.1705 67.7091 31.373 67.8304 30.568H68.5129C69.413 27.0708 69.4355 23.4054 68.5786 19.8974V19.8974Z" fill="#0C0A0A"/>
<path d="M66.6362 33.049C65.8355 35.359 65.2187 37.5771 66.1768 37.9053C67.1349 38.2334 69.2743 36.5928 70.1143 34.2565C70.9543 31.9203 70.7968 29.8203 69.8518 29.4921C68.9068 29.164 67.4368 30.7521 66.6362 33.049Z" fill="#FFE2C2"/>
<path d="M38.5884 33.049C39.389 35.359 40.0059 37.5771 39.0478 37.9053C38.0897 38.2334 35.9372 36.5928 35.1103 34.2565C34.2834 31.9203 34.4278 29.8203 35.3728 29.4921C36.3178 29.164 37.7747 30.7521 38.5884 33.049Z" fill="#FFE2C2"/>
<path d="M42.3917 48.208L52.603 54.1405L49.243 61.2805L41.2761 53.8911C41.2761 53.8911 39.1761 53.353 39.8717 52.408C40.5673 51.463 42.2736 50.623 42.3917 48.208Z" fill="#FFF8F8"/>
<path d="M62.829 48.2217L52.6309 54.1411L55.9777 61.2548L63.9446 53.9048C63.9446 53.9048 66.0315 53.3536 65.3359 52.4217C64.6402 51.4898 62.9996 50.6367 62.829 48.2217Z" fill="#FFF8F8"/>
<path d="M37.0131 54.6128L36.3175 54.9934L33.5744 55.689C33.5744 55.689 23.98 57.1984 22.2082 59.8234C19.0319 61.8447 18.8088 87.0315 19.4388 87.1365C20.0688 87.2415 49.2719 87.1365 49.2719 87.1365C50.3744 86.3622 51.49 85.6666 52.6057 84.9972L40.9375 51.3315L37.0131 54.6128Z" fill="#184F78"/>
<path d="M83.0039 59.8234C81.2321 57.1984 71.6377 55.689 71.6377 55.689L69.6952 55.1903L68.2514 54.3765L64.3139 51.3315L52.6327 84.8922V84.9709C50.3489 85.9422 46.3589 86.2834 47.4483 87.1103C47.4483 87.1103 85.1696 87.2153 85.7996 87.1103C86.4296 87.0053 86.1802 61.8447 83.0039 59.8234Z" fill="#184F78"/>
</g>
<defs>
<clipPath id="clip0_37_122">
<rect width="105" height="105" fill="white"/>
</clipPath>
</defs>
</svg>
