<svg width="112" height="112" viewBox="0 0 112 112" fill="none" xmlns="http://www.w3.org/2000/svg">
<path d="M111.22 55.61C111.22 86.32 86.32 111.22 55.61 111.22C24.9 111.22 0 86.32 0 55.61C0 24.9 24.9 0 55.61 0C86.33 0 111.22 24.9 111.22 55.61Z" fill="#D55441"/>
<path d="M55.11 82.08C55.1 80.34 55.1 78.83 55.44 77.98C56.14 76.22 57.58 75.12 59.12 73.96C60.18 73.15 61.28 72.32 62.13 71.23C62.74 70.45 63.67 67.28 63.29 65.16C63.04 63.77 62.26 63 61.08 62.95C60.48 62.93 59.8 63.71 58.83 64.91C58.4 65.44 57.95 65.99 57.68 66.18C56.43 67.02 55.72 67.35 54.23 67C53.68 66.87 53.21 66.69 52.84 66.47C51.45 65.62 51.47 64.11 51.49 62.36C51.5 61.85 51.5 61.32 51.47 60.78C51.35 58.48 50.04 57.63 48.78 56.81C47.77 56.16 46.82 55.54 46.39 54.18C45.86 52.53 45.95 50.65 46.64 48.87C46.77 48.53 47.06 48.12 47.36 47.7C48.09 46.66 49 45.37 48.12 44.2C47.59 43.5 46.78 43.26 45.79 43.5C44.18 43.89 42.36 45.5 41.76 46.48C40.58 48.42 40.19 50.58 39.81 52.67C39.67 53.44 39.52 54.24 39.34 55.02C37.9 61.1 33.6 64.8 28.54 68.67C23.92 72.21 18.71 77.04 19.48 83.02C19.51 88.95 23.15 94.84 28.96 98.39C33.44 101.13 38.69 102.11 43.33 101.08C45.42 100.77 47.36 99.88 49.1 98.46C50.31 97.53 51.34 96.42 52.14 95.16C55.14 90.82 55.12 85.77 55.11 82.08Z" fill="#2F2C26"/>
<path d="M54.3001 81.9901C54.3001 80.1201 54.2901 78.6401 54.6801 77.6701C55.4501 75.7501 57.0201 74.5401 58.5401 73.3801C59.5501 72.6101 60.6001 71.8101 61.3801 70.8101C61.8501 70.2201 62.7301 67.3101 62.3901 65.4001C62.2701 64.7201 62.0101 64.2601 61.6201 64.0201C61.4201 63.9001 61.1801 63.8301 60.9001 63.8201C60.5901 63.8501 59.7301 64.9101 59.2701 65.4901C58.7701 66.1101 58.3401 66.6501 57.9801 66.8901C56.5701 67.8401 55.6701 68.2001 54.0101 67.8201C53.3801 67.6701 52.8701 67.4701 52.4301 67.2101C50.7501 66.1801 50.7401 64.4701 50.7601 62.6401C50.4801 62.4401 50.2001 62.2101 49.9401 61.9701C49.5701 61.6301 49.2401 61.2001 48.8801 60.7401C48.4101 60.1201 47.8501 59.5801 47.3401 59.1301C45.7101 57.6801 44.5501 61.1001 44.2501 62.7701C44.0601 63.8101 43.8801 64.8001 43.5601 65.6401C43.5601 65.6401 41.4001 71.2901 39.1701 73.4401C38.8101 73.7801 38.3901 74.1201 37.9401 74.4801C36.4101 75.7001 35.5101 77.3801 35.9901 79.0801C36.2401 79.0201 36.5101 79.0501 36.7401 79.1901L42.1301 82.4801C42.4601 82.6801 42.6301 83.0501 42.5901 83.4101C42.8601 83.5401 43.1101 83.6701 43.3301 83.8101L43.3801 83.8401C45.8801 85.4001 47.6401 87.4301 48.6001 89.8801C48.8201 90.4301 48.9701 91.0701 49.1101 91.6901C49.4001 92.9501 49.7001 94.2501 50.5401 94.7601C50.7101 94.8701 50.9001 94.9301 51.1101 94.9801C51.2201 94.8201 51.3301 94.6601 51.4301 94.5001L51.4401 94.4801C54.3101 90.3801 54.3001 85.5301 54.3001 81.9901Z" fill="white"/>
<path d="M49.46 71.03C49.36 71.2 48.98 71.15 48.61 70.93L44.29 68.3C43.92 68.08 43.71 67.76 43.81 67.59L44.32 66.7601C44.42 66.5901 44.8 66.6401 45.17 66.8601L49.49 69.5001C49.86 69.7201 50.07 70.04 49.97 70.21L49.46 71.03Z" fill="#2F2C26"/>
<path d="M47.1399 74.8301C47.0399 75.0001 46.6599 74.9501 46.2899 74.7301L41.97 72.0901C41.6 71.8701 41.39 71.5501 41.49 71.3801L42 70.5501C42.1 70.3801 42.48 70.4301 42.85 70.6501L47.1699 73.2901C47.5399 73.5101 47.75 73.8301 47.65 74.0001L47.1399 74.8301Z" fill="#2F2C26"/>
<path d="M38.8743 75.7682L37.2537 78.4226L42.8185 81.8202L44.4391 79.1658L38.8743 75.7682Z" fill="#2F2C26"/>
<path d="M40.7099 85.6601C40.4699 86.0601 39.9399 86.1901 39.5499 85.9401L34.8799 83.09C34.4799 82.85 34.3599 82.3201 34.5999 81.9201L35.7999 79.9501C36.0399 79.5501 36.5599 79.4201 36.9599 79.6701L41.6299 82.52C42.0299 82.76 42.1599 83.29 41.9099 83.68L40.7099 85.6601Z" fill="#ACABAB"/>
<path d="M72.66 21.3601L46.85 63.1501C46.55 63.6401 46.7 64.3001 47.2 64.6001L50.58 66.6601C51.07 66.9601 51.73 66.8001 52.03 66.3001L77.34 24.2001L72.66 21.3601Z" fill="#2F2C26"/>
<path d="M82.07 15.3902C82.51 14.8202 83.07 15.7901 83.27 15.4001C84.3 13.3501 83.27 12.2802 82.24 11.6402C81.21 11.0102 79.88 11.3001 79.28 12.3001C79.28 12.3001 79.28 12.3001 79.28 12.3101L72.2 19.7001L73.72 21.8902L76.46 23.5601L79.2299 23.6901L82.07 15.3902Z" fill="#2F2C26"/>
<path d="M74.5499 19.47C74.4199 19.68 74.1499 19.74 73.9499 19.62C73.7399 19.49 73.6799 19.22 73.7999 19.02C73.9299 18.81 74.1999 18.75 74.3999 18.87C74.6099 18.99 74.6799 19.26 74.5499 19.47Z" fill="white"/>
<path d="M76.0599 17.8401C75.9299 18.0501 75.6599 18.1101 75.4599 17.9901C75.2499 17.8601 75.1899 17.5901 75.3099 17.3901C75.4399 17.1801 75.6999 17.1201 75.9099 17.2401C76.1199 17.3601 76.1799 17.6301 76.0599 17.8401Z" fill="white"/>
<path d="M77.4 16.38C77.27 16.59 76.9999 16.65 76.7999 16.53C76.5899 16.4 76.53 16.13 76.66 15.93C76.79 15.72 77.0499 15.66 77.2599 15.78C77.4599 15.91 77.52 16.18 77.4 16.38Z" fill="white"/>
<path d="M80.2999 12.9401C80.1699 13.1501 79.8999 13.2101 79.6999 13.0901C79.4899 12.9601 79.4299 12.6901 79.5499 12.4901C79.6799 12.2801 79.9499 12.2201 80.1499 12.3401C80.3699 12.4701 80.4299 12.7401 80.2999 12.9401Z" fill="white"/>
<path d="M79.28 11.9801C79.12 12.2401 78.79 12.3201 78.54 12.1601C78.28 12.0001 78.2 11.6701 78.36 11.4101C78.52 11.1501 78.85 11.0701 79.1 11.2301C79.35 11.3901 79.43 11.7201 79.28 11.9801Z" fill="white"/>
<path d="M76.53 14.8901C76.37 15.1401 76.04 15.2301 75.79 15.0701C75.54 14.9101 75.46 14.5801 75.61 14.3301C75.77 14.0801 76.1 13.9901 76.35 14.1501C76.61 14.3101 76.69 14.6401 76.53 14.8901Z" fill="white"/>
<path d="M78.85 14.75C78.72 14.96 78.45 15.02 78.25 14.9C78.04 14.77 77.98 14.5 78.1 14.3C78.23 14.09 78.49 14.03 78.7 14.15C78.91 14.28 78.97 14.55 78.85 14.75Z" fill="white"/>
<path d="M77.8801 13.3801C77.7201 13.6301 77.3901 13.7201 77.1301 13.5601C76.8701 13.4001 76.79 13.0701 76.95 12.8101C77.11 12.5501 77.44 12.4701 77.7 12.6301C77.95 12.7901 78.0401 13.1201 77.8801 13.3801Z" fill="white"/>
<path d="M75.1199 16.3401C74.9599 16.5901 74.6299 16.6801 74.3699 16.5201C74.1199 16.3701 74.0299 16.0301 74.1899 15.7801C74.3499 15.5201 74.6799 15.4401 74.9399 15.6001C75.1899 15.7501 75.2699 16.0801 75.1199 16.3401Z" fill="white"/>
<path d="M73.57 17.89C73.41 18.15 73.08 18.23 72.83 18.07C72.57 17.91 72.49 17.58 72.65 17.33C72.81 17.07 73.14 16.99 73.39 17.15C73.65 17.3 73.73 17.64 73.57 17.89Z" fill="white"/>
<path d="M37.79 83L37.9701 83.11L80.6901 13.13L80.51 13.02L37.79 83Z" fill="#D9D5D5"/>
<path d="M37.4102 82.77L37.5901 82.88L78.9601 15.11L78.7802 15L37.4102 82.77Z" fill="#D9D5D5"/>
<path d="M37.03 82.54L37.21 82.65L76.52 18.26L76.34 18.15L37.03 82.54Z" fill="#D9D5D5"/>
<path d="M80.8371 13.2028L38.2188 83.2468L38.3981 83.356L81.0165 13.3119L80.8371 13.2028Z" fill="#D9D5D5"/>
<path d="M38.54 83.46L38.7201 83.57L81.45 13.59L81.2701 13.48L38.54 83.46Z" fill="#D9D5D5"/>
<path d="M81.6466 13.7188L38.9216 83.6973L39.1009 83.8067L81.8259 13.8282L81.6466 13.7188Z" fill="#D9D5D5"/>
</svg>
