<svg width="70" height="70" viewBox="0 0 70 70" fill="none" xmlns="http://www.w3.org/2000/svg">
<g clip-path="url(#clip0_233_5325)">
<path d="M56.5712 54.0356C68.4847 42.1221 68.4847 22.8064 56.5712 10.8928C44.6576 -1.02073 25.3419 -1.02073 13.4283 10.8928C1.51478 22.8064 1.51478 42.1221 13.4283 54.0356C25.3419 65.9492 44.6576 65.9492 56.5712 54.0356Z" fill="url(#paint0_linear_233_5325)"/>
<path d="M54.7561 52.2206C65.6673 41.3095 65.6673 23.619 54.7561 12.7079C43.845 1.79673 26.1546 1.79673 15.2434 12.7079C4.33229 23.619 4.33229 41.3095 15.2434 52.2206C26.1546 63.1317 43.845 63.1317 54.7561 52.2206Z" fill="url(#paint1_linear_233_5325)"/>
<path d="M51.5488 15.9161C47.1284 11.4957 41.2514 9.06177 34.9999 9.06177C28.7484 9.06177 22.8714 11.4957 18.451 15.9161C14.0306 20.3365 11.5967 26.2135 11.5967 32.465C11.5967 38.7165 14.0306 44.5935 18.451 49.0139C22.8714 53.4343 28.7484 55.8682 34.9999 55.8682C41.2514 55.8682 47.1284 53.4343 51.5488 49.0139C55.9692 44.5935 58.4031 38.7165 58.4031 32.465C58.4031 26.2135 55.9692 20.3365 51.5488 15.9161V15.9161ZM50.4891 47.9561C46.3514 52.0938 40.8507 54.3723 34.998 54.3723C29.1454 54.3723 23.6447 52.0938 19.507 47.9561C15.3693 43.8184 13.0907 38.3177 13.0907 32.465C13.0907 26.6123 15.3693 21.1116 19.507 16.9739C23.6447 12.8362 29.1454 10.5577 34.998 10.5577C40.8507 10.5577 46.3514 12.8362 50.4891 16.9739C54.6268 21.1116 56.9053 26.6123 56.9053 32.465C56.9053 38.3177 54.6268 43.8184 50.4891 47.9561Z" fill="url(#paint2_linear_233_5325)"/>
<path d="M40.7833 22.1283C40.0063 21.692 39.0233 21.9691 38.589 22.7461C38.1527 23.5231 38.4298 24.506 39.2068 24.9404C41.9272 26.4663 43.6179 29.3477 43.6179 32.4631C43.6179 37.2149 39.7517 41.0811 34.9999 41.0811C30.2481 41.0811 26.3819 37.2149 26.3819 32.4631C26.3819 29.3477 28.0725 26.4663 30.7929 24.9404C31.5699 24.5042 31.847 23.5212 31.4107 22.7461C30.9745 21.9691 29.9916 21.692 29.2165 22.1283C25.4794 24.2233 23.1578 28.1832 23.1578 32.4631C23.1578 35.6273 24.3898 38.6004 26.6271 40.8378C28.8645 43.0751 31.8376 44.307 35.0017 44.307C38.1659 44.307 41.139 43.0751 43.3763 40.8378C45.6137 38.6004 46.8456 35.6273 46.8456 32.4631C46.8456 28.1832 44.524 24.2233 40.787 22.1283H40.7833Z" fill="url(#paint3_linear_233_5325)"/>
<path d="M35 34.077C35.8912 34.077 36.612 33.3543 36.612 32.465V21.5085C36.612 20.6173 35.8893 19.8965 35 19.8965C34.1106 19.8965 33.3879 20.6192 33.3879 21.5085V32.465C33.3879 33.3561 34.1106 34.077 35 34.077Z" fill="url(#paint4_linear_233_5325)"/>
</g>
<defs>
<linearGradient id="paint0_linear_233_5325" x1="34.9988" y1="1.95827" x2="34.9988" y2="62.9714" gradientUnits="userSpaceOnUse">
<stop stop-color="#08254A"/>
<stop offset="0.99" stop-color="#001135"/>
</linearGradient>
<linearGradient id="paint1_linear_233_5325" x1="34.9989" y1="4.52513" x2="34.9989" y2="60.4046" gradientUnits="userSpaceOnUse">
<stop stop-color="#08254A"/>
<stop offset="1" stop-color="#061F44"/>
</linearGradient>
<linearGradient id="paint2_linear_233_5325" x1="34.9999" y1="8.62928" x2="34.9999" y2="55.9787" gradientUnits="userSpaceOnUse">
<stop stop-color="#F093FB"/>
<stop offset="1" stop-color="#F5576C"/>
</linearGradient>
<linearGradient id="paint3_linear_233_5325" x1="-0.000118011" y1="8.6293" x2="0.187108" y2="55.9787" gradientUnits="userSpaceOnUse">
<stop stop-color="#F093FB"/>
<stop offset="1" stop-color="#F5576C"/>
</linearGradient>
<linearGradient id="paint4_linear_233_5325" x1="-8.968e-05" y1="8.62923" x2="0.187136" y2="55.9786" gradientUnits="userSpaceOnUse">
<stop stop-color="#F093FB"/>
<stop offset="1" stop-color="#F5576C"/>
</linearGradient>
<clipPath id="clip0_233_5325">
<rect width="70" height="70" fill="white"/>
</clipPath>
</defs>
</svg>
