<svg width="81" height="81" viewBox="0 0 81 81" fill="none" xmlns="http://www.w3.org/2000/svg">
<path d="M50.94 70.5598C67.5417 64.794 76.3258 46.6615 70.56 30.0599C64.7941 13.4582 46.6616 4.67401 30.06 10.4399C13.4583 16.2057 4.67416 34.3382 10.44 50.9399C16.2059 67.5415 34.3383 76.3257 50.94 70.5598Z" fill="#28A7B4"/>
<path d="M72.2957 40.4997C72.2957 37.991 71.994 35.5458 71.4462 33.2038C67.3021 29.0516 58.1801 19.9297 58.0452 19.8106C57.4577 19.112 56.4574 18.4213 54.7584 18.2228L54.7028 18.1831H29.0836V23.2164H23.2246L23.3596 61.7128L32.8785 71.3905C35.3157 71.9859 37.8562 72.3114 40.4761 72.3114C58.0452 72.3193 72.2957 58.0767 72.2957 40.4997Z" fill="#B4B3B3"/>
<path d="M58.8513 56.7339H29.0879V18.1899H54.6992L58.8513 21.4767V56.7339Z" fill="white"/>
<path d="M55.2956 24.2085H32.8281V25.0897H55.2956V24.2085Z" fill="#A8A190"/>
<path d="M55.2956 27.6938H32.8281V28.5751H55.2956V27.6938Z" fill="#A8A190"/>
<path d="M55.2956 31.1714H32.8281V32.0526H55.2956V31.1714Z" fill="#A8A190"/>
<path d="M55.2956 34.6567H32.8281V35.538H55.2956V34.6567Z" fill="#A8A190"/>
<path d="M55.2956 38.1333H32.8281V39.0145H55.2956V38.1333Z" fill="#A8A190"/>
<path d="M55.2956 41.6187H32.8281V42.4999H55.2956V41.6187Z" fill="#A8A190"/>
<path d="M55.2956 45.0962H32.8281V45.9774H55.2956V45.0962Z" fill="#A8A190"/>
<path d="M55.2956 48.5811H32.8281V49.4623H55.2956V48.5811Z" fill="#A8A190"/>
<path d="M55.2956 52.0586H32.8281V52.9398H55.2956V52.0586Z" fill="#A8A190"/>
<path d="M54.3457 18.1899L55.6398 21.834L58.8471 21.4767C58.8471 21.4767 58.474 18.4281 54.3457 18.1899Z" fill="#D9D9D9"/>
<path d="M52.9979 61.7671H23.2266V23.2231H48.8378L52.9979 26.5178V61.7671Z" fill="#E9E8E8"/>
<path d="M49.4342 29.249H26.9668V30.1303H49.4342V29.249Z" fill="#A8A190"/>
<path d="M49.4342 32.7266H26.9668V33.6078H49.4342V32.7266Z" fill="#A8A190"/>
<path d="M49.4342 36.2119H26.9668V37.0932H49.4342V36.2119Z" fill="#A8A190"/>
<path d="M49.4342 39.6885H26.9668V40.5697H49.4342V39.6885Z" fill="#A8A190"/>
<path d="M49.4342 43.166H26.9668V44.0473H49.4342V43.166Z" fill="#A8A190"/>
<path d="M49.4342 46.6514H26.9668V47.5326H49.4342V46.6514Z" fill="#A8A190"/>
<path d="M49.4342 50.1289H26.9668V51.0102H49.4342V50.1289Z" fill="#A8A190"/>
<path d="M49.4342 53.6138H26.9668V54.495H49.4342V53.6138Z" fill="#A8A190"/>
<path d="M49.4342 57.0903H26.9668V57.9716H49.4342V57.0903Z" fill="#A8A190"/>
<path d="M48.4844 23.2231L49.7784 26.8672L52.9858 26.5099C52.9938 26.5178 52.6127 23.4693 48.4844 23.2231Z" fill="#CCCCCC"/>
<path d="M44.0594 29.6131L34.916 51.5449L36.8652 52.3575L46.0086 30.4257L44.0594 29.6131Z" fill="#694A3B"/>
<path d="M36.8711 52.3444L35.1801 53.6306L34.9102 51.5347L36.8711 52.3444Z" fill="#D93629"/>
<path d="M43.2382 41.4128L42.5078 41.1111L45.5008 33.9263L44.1909 33.3785L44.5005 32.6401L46.5409 33.4976L43.2382 41.4128Z" fill="#D93629"/>
</svg>
